<?xml version="1.0" encoding="UTF-8"?>
<svg preserveAspectRatio="none" width="320px" height="90px" viewBox="0 0 320 90" version="1.1" xmlns="http://www.w3.org/2000/svg" xmlns:xlink="http://www.w3.org/1999/xlink">
    <!-- Generator: Sketch 58 (84663) - https://sketch.com -->
    <title>板子</title>
    <desc>Created with Sketch.</desc>
    <defs>
        <path d="M19.9985075,8 L300.001493,8 C308.285764,8 315.001493,14.7157288 315.001493,23 L315.001493,71 C315.001493,79.2842712 308.285764,86 300.001493,86 L19.9985075,86 C11.7142363,86 4.9985075,79.2842712 4.9985075,71 L4.9985075,23 C4.9985075,14.7157288 11.7142363,8 19.9985075,8 Z" id="path-1"></path>
        <filter x="-0.3%" y="-1.3%" width="100.6%" height="105.1%" filterUnits="objectBoundingBox" id="filter-3">
            <feOffset dx="0" dy="2" in="SourceAlpha" result="shadowOffsetOuter1"></feOffset>
            <feColorMatrix values="0 0 0 0 0.973646966   0 0 0 0 0.865860276   0 0 0 0 0.542500208  0 0 0 1 0" type="matrix" in="shadowOffsetOuter1"></feColorMatrix>
        </filter>
        <linearGradient x1="50%" y1="2.16691301%" x2="50%" y2="98.1023015%" id="linearGradient-4">
            <stop stop-color="#C0E669" offset="0%"></stop>
            <stop stop-color="#A4DE57" offset="100%"></stop>
        </linearGradient>
    </defs>
    <g id="1-主页面" stroke="none" stroke-width="1" fill="none" fill-rule="evenodd">
        <g id="1-1主页面-PK" transform="translate(-960.000000, -240.000000)">
            <g id="聊天区/PK比分" transform="translate(960.000000, 240.000000)">
                <g id="板子">
                    <rect id="矩形" x="0" y="0" width="320" height="90"></rect>
                    <mask id="mask-2" fill="white">
                        <use xlink:href="#path-1"></use>
                    </mask>
                    <g id="牌子">
                        <use fill="black" fill-opacity="1" filter="url(#filter-3)" xlink:href="#path-1"></use>
                        <use fill="#FFEDB7" fill-rule="evenodd" xlink:href="#path-1"></use>
                    </g>
                    <g id="挂绳" transform="translate(14.998507, 0.000000)">
                        <circle id="椭圆形备份" stroke="#F7C74B" stroke-width="2" fill="#E0AD29" cx="3" cy="28" r="4"></circle>
                        <path d="M3,0 C4.1045695,-2.02906125e-16 5,0.8954305 5,2 L5,28 C5,29.1045695 4.1045695,30 3,30 C1.8954305,30 1,29.1045695 1,28 L1,2 C1,0.8954305 1.8954305,2.02906125e-16 3,0 Z" id="矩形备份" fill="url(#linearGradient-4)"></path>
                    </g>
                    <g id="挂绳" transform="translate(299.001492, 0.000000)">
                        <circle id="椭圆形备份" stroke="#F7C74B" stroke-width="2" fill="#E0AD29" cx="3" cy="28" r="4"></circle>
                        <path d="M3,0 C4.1045695,-2.02906125e-16 5,0.8954305 5,2 L5,28 C5,29.1045695 4.1045695,30 3,30 C1.8954305,30 1,29.1045695 1,28 L1,2 C1,0.8954305 1.8954305,2.02906125e-16 3,0 Z" id="矩形备份" fill="url(#linearGradient-4)"></path>
                    </g>
                </g>
            </g>
        </g>
    </g>
</svg>