<?xml version="1.0" encoding="UTF-8"?>
<svg preserveAspectRatio="none" width="320px" height="22px" viewBox="0 0 320 22" version="1.1" xmlns="http://www.w3.org/2000/svg" xmlns:xlink="http://www.w3.org/1999/xlink">
    <!-- Generator: Sketch 58 (84663) - https://sketch.com -->
    <title>小草</title>
    <desc>Created with Sketch.</desc>
    <defs>
        <linearGradient x1="50%" y1="0%" x2="50%" y2="89.1241%" id="linearGradient-1">
            <stop stop-color="#ADEF40" offset="0%"></stop>
            <stop stop-color="#7AC62F" offset="100%"></stop>
        </linearGradient>
        <linearGradient x1="50%" y1="0%" x2="50%" y2="89.1241%" id="linearGradient-2">
            <stop stop-color="#ADEF40" offset="0%"></stop>
            <stop stop-color="#7AC62F" offset="100%"></stop>
        </linearGradient>
        <linearGradient x1="50%" y1="0%" x2="50%" y2="89.1241%" id="linearGradient-3">
            <stop stop-color="#ADEF40" offset="0%"></stop>
            <stop stop-color="#7AC62F" offset="100%"></stop>
        </linearGradient>
    </defs>
    <g id="3-排行榜" stroke="none" stroke-width="1" fill="none" fill-rule="evenodd">
        <g id="3-1排行榜-个人排行-上榜" transform="translate(-960.000000, -698.000000)">
            <g id="草丛点缀" transform="translate(960.000000, 698.000000)">
                <rect id="矩形" x="0" y="0" width="320" height="22"></rect>
                <path d="M301.220655,9.77448847 C293.322789,9.4308386 287.213888,9.91044538 282.893951,11.2133088 C276.414045,13.167604 272,15.2428256 272,17.6367603 C272,20.030695 275.077525,20 278.985738,20 C282.893951,20 299.519691,20 307.685178,20 C315.850664,20 318,12.925751 318,9.77448847 C318,7.67364681 316.793633,7.12505733 314.380899,8.12872004 C316.793633,3.81255951 317.283555,1.17606806 315.850664,0.219245699 C314.417773,-0.737576659 310.992545,1.43739226 305.574978,6.74415247 C304.490099,3.60195356 303.491177,2.34853677 302.578214,2.98390209 C301.66525,3.61926741 301.212731,5.88279621 301.220655,9.77448847 Z" id="路径-2" fill="url(#linearGradient-1)"></path>
                <path d="M258.082164,12.6315789 C254.388631,12.6315789 250,14.3305072 250,17.5702174 C250,20.8099275 266,20.8099275 266,17.5702174 C266,14.3305072 261.775698,12.6315789 258.082164,12.6315789 Z" id="路径-3" fill="url(#linearGradient-2)"></path>
                <path d="M2.22011356,4.47458661 C1.47633437,7.98175743 2.29628716,20 9.75762854,20 C17.2189699,20 41.9864016,20 44.5184854,20 C45.6476398,20 45.3964804,15.835659 36.9438014,13.5201046 C34.1545671,12.7560127 27.6600797,12.328409 17.4603393,12.2372933 C18.4603854,9.32192388 18.4603854,7.55298542 17.4603393,6.93047793 C16.4602931,6.30797045 14.5960285,7.34815363 11.8675454,10.0510275 C8.44095723,5.3294458 5.22514662,3.47063217 2.22011356,4.47458661 Z" id="路径-4" fill="url(#linearGradient-3)"></path>
            </g>
        </g>
    </g>
</svg>