<?xml version="1.0" encoding="UTF-8"?>
<svg width="12px" height="12px" viewBox="0 0 12 12" version="1.1" xmlns="http://www.w3.org/2000/svg" xmlns:xlink="http://www.w3.org/1999/xlink">
    <!-- Generator: Sketch 58 (84663) - https://sketch.com -->
    <title>路径</title>
    <desc>Created with Sketch.</desc>
    <g id="3-排行榜" stroke="none" stroke-width="1" fill="none" fill-rule="evenodd">
        <g id="3-6排行榜-找不到网络" transform="translate(-1097.000000, -495.000000)" fill="#A6664B" fill-rule="nonzero">
            <g id="刷新按钮" transform="translate(1080.000000, 488.000000)">
                <path d="M22.921198,7 C24.773562,7 26.4858423,7.85716469 27.6001928,9.29208884 C27.6122871,9.30766238 27.6237035,9.32354755 27.6344463,9.33970883 L28.093694,9.07528554 C28.3826803,8.90843925 28.7522056,9.00745325 28.9190519,9.29643951 C28.9769804,9.39677468 29.0048402,9.51164933 28.9993115,9.62737441 L28.8570371,12.605384 C28.8411131,12.9386964 28.558001,13.1959906 28.2246886,13.1800666 C28.1382322,13.1759361 28.0536725,13.1532784 27.9767339,13.1136273 L25.3265647,11.7478358 C25.0299457,11.5949701 24.9134105,11.2305908 25.0662761,10.9339718 C25.1193506,10.8309866 25.2009153,10.7454321 25.3012504,10.6875036 L26.2601775,10.132407 C25.4400705,9.15115447 24.2292838,8.57093008 22.921198,8.57093008 C20.5186114,8.57093008 18.5709301,10.5186114 18.5709301,12.921198 C18.5709301,15.3237846 20.5186114,17.2714659 22.921198,17.2714659 C24.0991936,17.2714659 25.2007765,16.802113 26.0131378,15.9813847 C26.3183054,15.673074 26.8156279,15.6705261 27.1239386,15.9756937 C27.4322492,16.2808613 27.4347972,16.7781838 27.1296296,17.0864944 C26.0251484,18.2023512 24.5229475,18.842396 22.921198,18.842396 C19.6510106,18.842396 17,16.1913854 17,12.921198 C17,9.65101064 19.6510106,7 22.921198,7 Z" id="路径"></path>
            </g>
        </g>
    </g>
</svg>