<?xml version="1.0" encoding="UTF-8"?>
<svg width="32px" height="32px" viewBox="0 0 32 32" version="1.1" xmlns="http://www.w3.org/2000/svg" xmlns:xlink="http://www.w3.org/1999/xlink">
    <!-- Generator: Sketch 58 (84663) - https://sketch.com -->
    <title>icon/金币</title>
    <desc>Created with Sketch.</desc>
    <defs>
        <circle id="path-1" cx="15" cy="15" r="14"></circle>
        <filter x="-8.9%" y="-8.9%" width="117.9%" height="117.9%" filterUnits="objectBoundingBox" id="filter-2">
            <feOffset dx="0" dy="5" in="SourceAlpha" result="shadowOffsetInner1"></feOffset>
            <feComposite in="shadowOffsetInner1" in2="SourceAlpha" operator="arithmetic" k2="-1" k3="1" result="shadowInnerInner1"></feComposite>
            <feColorMatrix values="0 0 0 0 1   0 0 0 0 0.580392157   0 0 0 0 0  0 0 0 1 0" type="matrix" in="shadowInnerInner1"></feColorMatrix>
        </filter>
        <linearGradient x1="50%" y1="0%" x2="50%" y2="100%" id="linearGradient-3">
            <stop stop-color="#FFEA0B" offset="0%"></stop>
            <stop stop-color="#FFCC00" offset="100%"></stop>
        </linearGradient>
    </defs>
    <g id="icon/金币" stroke="none" stroke-width="1" fill="none" fill-rule="evenodd">
        <g transform="translate(1.000000, 0.000000)" id="金币">
            <g>
                <g id="编组-4">
                    <circle id="椭圆形" fill="#FF9323" cx="15" cy="16" r="15"></circle>
                    <g id="椭圆形">
                        <use fill="#FFA500" fill-rule="evenodd" xlink:href="#path-1"></use>
                        <use fill="black" fill-opacity="1" filter="url(#filter-2)" xlink:href="#path-1"></use>
                    </g>
                    <path d="M15,0 C23.2842712,0 30,6.71572875 30,15 C30,23.2842712 23.2842712,30 15,30 C6.71572875,30 0,23.2842712 0,15 C0,6.71572875 6.71572875,0 15,0 Z M15,4 C8.92486775,4 4,8.92486775 4,15 C4,21.0751322 8.92486775,26 15,26 C21.0751322,26 26,21.0751322 26,15 C26,8.92486775 21.0751322,4 15,4 Z" id="形状结合" fill="url(#linearGradient-3)"></path>
                </g>
                <g id="途途" transform="translate(8.000000, 6.000000)">
                    <path d="M7,2.07929782 C5.42799562,2.07929782 4.28394125,2.17891529 3.56783688,2.37815024 C3.28293359,1.80503159 2.92068695,1.31515891 2.48109698,0.908532183 C2.13417102,0.587620927 1.67552309,0.331349898 1.10515319,0.139719098 L1.10517442,0.139655915 C0.89572883,0.0692871493 0.668894479,0.182031189 0.598525714,0.391476776 C0.586927754,0.425996944 0.580097337,0.46193902 0.578223706,0.498307195 C0.551491672,1.01719027 0.596252096,1.49492798 0.712504976,1.93152033 C0.811378464,2.30284368 0.976778621,2.66701182 1.20870545,3.02402475 C1.48130245,3.44362395 1.58670326,3.95016483 1.50411529,4.44367455 L0,13.4316114 L0,13.4316114 C0.650502588,14.6597062 1.66274383,15.5999691 3.03672373,16.2523999 C4.41070362,16.9048307 5.73179571,17.2259842 7,17.2158605 C7.98524582,17.2910653 9.18874818,16.9699118 10.6105071,16.2523999 C12.032266,15.534888 13.1620969,14.5946251 14,13.4316114 L12.2021393,4.53307725 C12.0902149,3.97900979 12.2179595,3.40345002 12.5537918,2.94876939 C12.7928277,2.62514064 12.9564817,2.33531678 13.0447539,2.07929782 C13.1583203,1.7499173 13.2258019,1.24827054 13.2471987,0.574357536 L13.2472042,0.57435771 C13.2542147,0.353552047 13.0808996,0.16887048 12.8600939,0.161859885 C12.8062509,0.160150364 12.7526173,0.169334204 12.7024105,0.188860482 C12.207492,0.381342774 11.7628302,0.621233341 11.3684253,0.908532183 C10.8325226,1.29890309 10.5391288,1.78877578 10.4882439,2.37815024 C9.73475236,2.17891529 8.57200438,2.07929782 7,2.07929782 Z" id="路径-10" fill="#FFD500"></path>
                    <path d="M11.2749132,10.800148 C13.4392361,10.800148 14,12.3860205 14,13.9337847 C14,15.481549 12.2966999,19 7.07465278,19 C1.85260568,19 0,15.8588111 0,13.9337847 C0,12.0087583 0.98125,10.800148 2.95173611,10.800148 C4.92222222,10.800148 6.17256944,11.8407873 7,11.8407873 C7.82743056,11.8407873 9.11059028,10.800148 11.2749132,10.800148 Z M9.97791108,13.2001809 C8.91149769,13.5355443 7.91599354,13.703226 6.99139863,13.703226 C6.06680372,13.703226 5.08331482,13.5355443 4.04093191,13.2001809 C3.86783751,13.5355443 3.86783751,14.0826294 4.04093191,14.8414361 C4.30057351,15.9796461 5.68517394,17.242337 7.0189701,17.242337 C8.39649051,17.242337 9.72283913,15.9796461 9.97791108,14.8414361 C10.147959,14.0826294 10.147959,13.5355443 9.97791108,13.2001809 Z M4.11111111,7.00009594 C5.09295067,7.00009594 5.88888889,7.79604508 5.88888889,8.77789809 C5.88888889,9.7597511 5.09295067,10.5557002 4.11111111,10.5557002 C3.12927156,10.5557002 2.33333333,9.7597511 2.33333333,8.77789809 C2.33333333,7.79604508 3.12927156,7.00009594 4.11111111,7.00009594 Z M9.71111111,7.00009594 C10.6929507,7.00009594 11.4888889,7.79604508 11.4888889,8.77789809 C11.4888889,9.7597511 10.6929507,10.5557002 9.71111111,10.5557002 C8.72927156,10.5557002 7.93333333,9.7597511 7.93333333,8.77789809 C7.93333333,7.79604508 8.72927156,7.00009594 9.71111111,7.00009594 Z M7.44461806,0 C9.55199653,0 10.941276,1.48326686 10.941276,2.6124924 C10.941276,3.74171795 9.88832465,4.11641927 9.00868056,4.22323497 C8.12903646,4.33005067 7.39509549,4.48469688 7.07599826,4.97489458 C6.86326678,5.30169304 6.94429977,5.7911384 7.31909722,6.44323067 C6.35170362,6.21324531 5.70393163,5.99339276 5.37578125,5.78367302 C4.02800492,4.92231397 3.57240077,3.74662823 3.64340278,2.78476039 C3.78880208,0.815028532 5.33723958,0 7.44461806,0 Z" id="形状结合" fill="#FFED4C"></path>
                </g>
            </g>
        </g>
    </g>
</svg>