<?xml version="1.0" encoding="UTF-8"?>
<svg width="12px" height="12px" viewBox="0 0 12 12" version="1.1" xmlns="http://www.w3.org/2000/svg" xmlns:xlink="http://www.w3.org/1999/xlink">
    <!-- Generator: Sketch 58 (84663) - https://sketch.com -->
    <title>刷新按钮@2x</title>
    <desc>Created with Sketch.</desc>
    <g id="3-排行榜" stroke="none" stroke-width="1" fill="none" fill-rule="evenodd">
        <g id="3-6排行榜-找不到网络" transform="translate(-1098.000000, -495.000000)" fill="#5A5691" fill-rule="nonzero">
            <g id="刷新按钮" transform="translate(1080.000000, 488.000000)">
                <g id="刷新icon" transform="translate(18.000000, 7.000000)">
                    <path d="M5.921198,8.08242362e-14 C7.77356198,8.08242362e-14 9.4858423,0.857164693 10.6001928,2.29208884 C10.6122871,2.30766238 10.6237035,2.32354755 10.6344463,2.33970883 L11.093694,2.07528554 C11.3826803,1.90843925 11.7522056,2.00745325 11.9190519,2.29643951 C11.9769804,2.39677468 12.0048402,2.51164933 11.9993115,2.62737441 L11.8570371,5.60538399 C11.8411131,5.93869641 11.558001,6.19599056 11.2246886,6.18006656 C11.1382322,6.17593611 11.0536725,6.15327839 10.9767339,6.11362729 L8.32656469,4.74783575 C8.02994567,4.59497013 7.91341051,4.23059084 8.06627613,3.93397181 C8.11935061,3.83098657 8.20091527,3.74543213 8.30125044,3.68750359 L9.26017754,3.13240701 C8.44007052,2.15115447 7.22928381,1.57093008 5.921198,1.57093008 C3.51861137,1.57093008 1.57093008,3.51861137 1.57093008,5.921198 C1.57093008,8.32378462 3.51861137,10.2714659 5.921198,10.2714659 C7.09919361,10.2714659 8.20077645,9.80211295 9.01313782,8.98138472 C9.31830545,8.67307404 9.81562788,8.67052609 10.1239386,8.97569371 C10.4322492,9.28086134 10.4347972,9.77818377 10.1296296,10.0864944 C9.02514839,11.2023512 7.52294755,11.842396 5.921198,11.842396 C2.65101064,11.842396 0,9.19138535 0,5.921198 C0,2.65101064 2.65101064,8.08242362e-14 5.921198,8.08242362e-14 Z" id="路径"></path>
                </g>
            </g>
        </g>
    </g>
</svg>