<?xml version="1.0" encoding="UTF-8"?>
<svg preserveAspectRatio="none" width="320px" height="22px" viewBox="0 0 320 22" version="1.1" xmlns="http://www.w3.org/2000/svg" xmlns:xlink="http://www.w3.org/1999/xlink">
    <!-- Generator: Sketch 58 (84663) - https://sketch.com -->
    <title>排行榜/底部海草装饰@2x</title>
    <desc>Created with Sketch.</desc>
    <defs>
        <linearGradient x1="50%" y1="0%" x2="50%" y2="100%" id="linearGradient-1">
            <stop stop-color="#9AB3D5" offset="0%"></stop>
            <stop stop-color="#67778F" offset="100%"></stop>
        </linearGradient>
        <linearGradient x1="37.0695522%" y1="1.9369152%" x2="62.7284096%" y2="97.3120991%" id="linearGradient-2">
            <stop stop-color="#75EC9F" offset="0%"></stop>
            <stop stop-color="#58CC81" offset="100%"></stop>
        </linearGradient>
        <linearGradient x1="50%" y1="12.079704%" x2="48.1358557%" y2="95.8409643%" id="linearGradient-3">
            <stop stop-color="#FFB5AB" offset="0%"></stop>
            <stop stop-color="#F38C82" offset="100%"></stop>
        </linearGradient>
        <linearGradient x1="50%" y1="0%" x2="50%" y2="100%" id="linearGradient-4">
            <stop stop-color="#9AB3D5" offset="0%"></stop>
            <stop stop-color="#67778F" offset="100%"></stop>
        </linearGradient>
        <linearGradient x1="68.1604214%" y1="22.3467146%" x2="11.4717827%" y2="76.7569649%" id="linearGradient-5">
            <stop stop-color="#63EAED" offset="0%"></stop>
            <stop stop-color="#31C1C6" offset="100%"></stop>
        </linearGradient>
        <linearGradient x1="31.9347763%" y1="16.2443327%" x2="50%" y2="66.0172385%" id="linearGradient-6">
            <stop stop-color="#63EAED" offset="0%"></stop>
            <stop stop-color="#31C1C6" offset="100%"></stop>
        </linearGradient>
        <linearGradient x1="46.3353959%" y1="26.9223163%" x2="69.7413439%" y2="75.6609154%" id="linearGradient-7">
            <stop stop-color="#8AF3F5" offset="0.073902027%"></stop>
            <stop stop-color="#4ED0D5" offset="100%"></stop>
        </linearGradient>
        <linearGradient x1="61.2813483%" y1="7.39210658%" x2="32.6342067%" y2="90.7170296%" id="linearGradient-8">
            <stop stop-color="#FFAAD8" offset="0%"></stop>
            <stop stop-color="#ED85BD" offset="100%"></stop>
        </linearGradient>
        <linearGradient x1="41.4370106%" y1="11.8470367%" x2="62.3921502%" y2="100%" id="linearGradient-9">
            <stop stop-color="#FFA4D4" offset="0%"></stop>
            <stop stop-color="#F48FC4" offset="100%"></stop>
        </linearGradient>
        <linearGradient x1="52.2073783%" y1="5.79480367%" x2="41.8466224%" y2="94.027541%" id="linearGradient-10">
            <stop stop-color="#FFC3E6" offset="0%"></stop>
            <stop stop-color="#F798CA" offset="100%"></stop>
        </linearGradient>
        <linearGradient x1="51.9175408%" y1="12.435268%" x2="47.4357291%" y2="95.9458024%" id="linearGradient-11">
            <stop stop-color="#FFCB98" offset="0%"></stop>
            <stop stop-color="#F3A86F" offset="100%"></stop>
        </linearGradient>
    </defs>
    <g id="排行榜/底部海草装饰" stroke="none" stroke-width="1" fill="none" fill-rule="evenodd">
        <path d="M249.434082,16.4231411 C249.434082,19.9783419 313.87085,21.1467769 313.87085,16.4231411 C313.87085,11.6995053 308.027453,8.54301427 288.57658,8.54301427 C269.125706,8.54301427 249.434082,12.8679402 249.434082,16.4231411 Z" id="路径-2" fill="url(#linearGradient-1)"></path>
        <path d="M299.188741,12.9950324 C298.057221,13.0408708 296.975339,12.7694803 295.943096,12.1808611 C294.394731,11.2979323 293.673478,10.2413659 294.347825,9.66028446 C295.022173,9.07920305 296.287946,9.83555983 296.993055,10.4359295 C297.698165,11.0362991 298.295802,11.5100542 298.376709,11.0213333 C298.457617,10.5326124 297.690552,9.50389563 297.072656,9.0634244 C296.454759,8.62295317 294.4424,6.68129316 295.549758,5.5749181 C296.657116,4.46854304 298.261731,7.99104764 298.548919,8.95829411 C298.836107,9.92554059 299.317288,11.658768 299.883637,11.5019313 C300.449986,11.3450946 300.310833,8.62476786 299.286888,6.91857456 C298.262943,5.21238126 296.632271,2.86765498 298.13372,2.10180057 C299.635169,1.33594615 301.167843,5.10937803 301.184045,6.13439845 C301.200247,7.15941887 300.76061,8.50423769 301.031247,8.42929137 C301.301883,8.35434505 301.780166,6.52829664 302.408467,6.8911938 C302.827334,7.13312523 302.621426,8.1946935 301.790744,10.0758986 C302.772267,8.87420388 303.473888,8.44743539 303.895608,8.79559312 C304.528186,9.31782971 303.590743,11.2678693 301.975859,12.1193164 C300.899269,12.6869477 299.97023,12.9788531 299.188741,12.9950324 Z" id="路径-38" fill="url(#linearGradient-2)"></path>
        <path d="M302.472402,11.371381 C302.950122,10.2462114 302.950122,9.05198712 302.472402,7.78870821 C301.755822,5.89378985 300.874387,1.48176253 303.879306,1.07487348 C306.884226,0.667984433 307.093693,6.26946458 306.518268,8.33700703 C306.134652,9.71536866 305.483983,10.8633106 304.566261,11.780833 C304.108291,12.0241491 303.650728,12.1048133 303.193571,12.0228257 C302.736415,11.9408381 302.496025,11.7236898 302.472402,11.371381 Z" id="路径-4" fill="url(#linearGradient-3)" transform="translate(304.273147, 6.553821) rotate(-19.000000) translate(-304.273147, -6.553821) "></path>
        <path d="M4,16.5500583 C4,19.9606327 59.1313477,21.0815354 59.1313477,16.5500583 C59.1313477,12.0185812 57.704022,8.54301427 41.0620809,8.54301427 C24.4201398,8.54301427 4,13.139484 4,16.5500583 Z" id="路径-2备份" fill="url(#linearGradient-4)" transform="translate(31.565674, 14.043014) scale(-1, 1) translate(-31.565674, -14.043014) "></path>
        <g id="海草1" transform="translate(294.094770, 8.500000) rotate(1.000000) translate(-294.094770, -8.500000) translate(286.094770, 3.000000)">
            <path d="M14.575529,2.71407409 C14.0327766,1.98204077 12.0446378,2.99721306 11.3295365,3.75214066 C10.6144352,4.50706826 10.2308228,6.55684466 9.8347497,7.01253162 C9.4386766,7.46821858 9.13411277,8.77747166 9.83645846,8.77813948 C10.5388042,8.77880655 11.6969113,7.88505936 12.1642562,7.01474536 C12.6316011,6.14443137 14.0949889,5.87661167 14.5775634,4.81614877 C15.0601379,3.75568587 15.1182814,3.44610741 14.575529,2.71407409 Z" id="路径-43" fill="url(#linearGradient-5)" transform="translate(12.188738, 5.619634) rotate(-3.000000) translate(-12.188738, -5.619634) "></path>
            <path d="M1.92330197,0.526289758 C0.147333182,1.39824116 1.94136777,5.65235262 3.1073648,6.52155023 C4.27336183,7.39074783 7.56986903,10.5786402 8.71780026,9.88117923 C9.86573148,9.18371825 6.84397503,6.16981559 6.18984242,4.53506318 C5.53570981,2.90031076 3.69927076,-0.345661646 1.92330197,0.526289758 Z" id="路径-6" fill="url(#linearGradient-6)"></path>
            <path d="M7.74275494,3.82309799 C7.74275494,4.24685066 7.79743666,4.84033453 7.91501525,5.50282173 C7.93521144,5.27382452 7.96801127,5.06366391 8.01621961,4.87944833 C8.33264035,3.67032921 9.42993804,1.93866505 10.4886719,2.0780102 C11.5474058,2.21735535 11.3944048,3.87230449 11.3686294,5.28753543 C11.342854,6.70276638 10.5754351,8.44097262 9.9559014,9.31922292 C9.69953528,9.68264724 9.27345317,9.88355738 8.87340244,9.93359411 C8.71684007,10.2947062 8.3928065,10.4296047 8.02448495,10.2629777 C7.91865502,10.2151007 7.80655632,10.1356781 7.69108649,10.0331999 C7.58528955,10.7990955 6.13680816,10.5750622 5.43246132,10.3540006 C4.70115943,10.124479 2.93404803,9.70969296 2.18442224,9.35772718 C1.43479646,9.0057614 -0.087614494,7.85274461 0.931398118,6.44930718 C1.95041073,5.04586975 4.51578807,7.01899263 5.08150767,7.65371122 C5.37283633,7.98057229 6.05779214,8.34362148 6.65370405,8.73885511 C6.30677355,8.22072514 6.01195178,7.72321978 5.85882865,7.51044051 C5.51309223,7.03000661 4.08853601,4.83732003 4.08853601,3.82309799 C4.08853601,2.80887595 4.32941899,1.83878794 5.54515906,1.59119483 C6.76089913,1.34360171 7.74275494,2.86124669 7.74275494,3.82309799 Z" id="形状结合" fill="url(#linearGradient-7)"></path>
        </g>
        <g id="编组" transform="translate(9.000000, 1.000000)">
            <path d="M13.693892,9.60536837 C13.1547901,8.71325632 13.6290693,3.80507879 15.1534414,2.99443075 C16.6778135,2.18378271 20.2758883,2.9244805 20.882135,5.11755664 C21.4883817,7.31063277 18.6020092,10.9325494 17.7116956,11.14145 C16.821382,11.3503507 14.2329939,10.4974804 13.693892,9.60536837 Z" id="路径-3备份" fill="url(#linearGradient-8)" transform="translate(17.222278, 6.924134) rotate(-8.000000) translate(-17.222278, -6.924134) "></path>
            <path d="M17.3407556,5.59938555 C18.7063461,5.96529442 19.9306885,5.82410551 20.075401,5.28403129 C20.2201134,4.74395707 19.2303962,4.00951266 17.8648057,3.64360379 C16.4992152,3.27769492 15.2748728,3.41888383 15.1301603,3.95895805 C14.9854479,4.49903227 15.9751651,5.23347668 17.3407556,5.59938555 Z" id="椭圆形备份" fill-opacity="0.5" fill="#000000" style="mix-blend-mode: soft-light;" opacity="0.657273065" transform="translate(17.602781, 4.621495) rotate(-6.000000) translate(-17.602781, -4.621495) "></path>
            <path d="M2.68221543,10.6150807 C2.21632407,10.3427567 1.02752103,9.21379792 0.485286672,7.81062987 C-0.094015203,6.31154027 -0.168344037,4.54451504 0.336237594,3.73690075 C1.31311443,2.1733486 5.03598183,0.937251495 6.7675419,2.64165997 C8.49910197,4.34606845 7.75306959,8.91782787 7.01493759,9.80274109 C6.27680559,10.6876543 3.34552,11.0027972 2.68221543,10.6150807 Z" id="路径-3备份-2" fill="url(#linearGradient-9)"></path>
            <path d="M3.73300668,4.50107174 C5.19123053,4.11034184 6.24808413,3.3260772 6.09355526,2.74936763 C5.9390264,2.17265806 4.63163201,2.02189175 3.17340817,2.41262165 C1.71518432,2.80335156 0.65833072,3.5876162 0.812859583,4.16432577 C0.967388446,4.74103534 2.27478283,4.89180165 3.73300668,4.50107174 Z" id="椭圆形备份-2" fill-opacity="0.5" fill="#000000" style="mix-blend-mode: soft-light;" opacity="0.630533854"></path>
            <path d="M7.58733228,10.1615738 C6.64925016,9.08791464 6.12233747,2.36377916 7.98317561,0.90974147 C9.84401376,-0.544296221 14.8666748,-0.40116016 16.2042064,2.40899462 C17.541738,5.2191494 14.5139665,10.7835638 13.3643009,11.2764262 C12.2146354,11.7692886 8.5254144,11.235233 7.58733228,10.1615738 Z" id="路径-3" fill="url(#linearGradient-10)"></path>
            <ellipse id="椭圆形" fill-opacity="0.5" fill="#000000" style="mix-blend-mode: soft-light;" transform="translate(11.857688, 1.938198) rotate(5.000000) translate(-11.857688, -1.938198) " cx="11.8576881" cy="1.93819817" rx="3.50139395" ry="1.38475817"></ellipse>
        </g>
        <path d="M306.942228,12.5904781 C306.596256,12.0832441 306.339574,10.2815293 306.224998,9.02865112 C306.110421,7.77577291 305.850517,5.21305436 306.683012,3.23166059 C307.515507,1.25026682 309.002437,0.753524721 310.067947,1.10337023 C311.133457,1.45321574 311.337706,3.95832641 310.828741,5.50703192 C310.319776,7.05573743 308.949676,9.65927896 308.9663,10.7900522 C308.982924,11.9208255 309.219322,12.5990258 308.603256,12.8373541 C307.98719,13.0756824 307.2882,13.0977121 306.942228,12.5904781 Z" id="路径-5" fill="url(#linearGradient-11)" transform="translate(308.594770, 7.000000) rotate(9.000000) translate(-308.594770, -7.000000) "></path>
    </g>
</svg>